<?xml version="1.0" encoding="UTF-8"?><svg id="Capa_1" xmlns="http://www.w3.org/2000/svg" viewBox="0 0 478 314"><path d="M407.19,45.33C362.19,16.1,302.46,0,239,0S115.81,16.1,70.81,45.33C25.15,74.99,0,114.65,0,157s25.15,82.01,70.81,111.67c45,29.23,104.73,45.33,168.19,45.33s123.19-16.1,168.19-45.33c45.66-29.66,70.81-69.32,70.81-111.67s-25.15-82.01-70.81-111.67ZM239,304c-126.27,0-229-65.94-229-147S112.73,10,239,10s229,65.94,229,147-102.73,147-229,147Z"/><path d="M371.78,70.04c-35.54-22.6-82.7-35.05-132.78-35.05-21.08,0-41.76,2.23-61.51,6.6-8.57-3.67-19.17-4.89-31.36-1.4-15.3,4.37-23.78,14.7-28.3,23.07-43.11,23.22-67.81,57.31-67.81,93.74,0,33.02,19.96,63.91,56.2,86.96,35.54,22.6,82.7,35.05,132.78,35.05s97.24-12.45,132.78-35.05c36.24-23.05,56.2-53.93,56.2-86.96s-19.96-63.9-56.2-86.96Zm43.96,104.67c-.15-.17-.29-.34-.46-.49-2.08-1.81-5.24-1.58-7.05,.5-2.89,3.34-8.62,7.75-11.41,6.98-1.38-.37-3.25-2.97-4.39-9.12-1.46-7.87-4.4-12.7-8.99-14.76-7.72-3.46-16.82,2.04-28.34,9-7.36,4.45-15.69,9.48-24.87,13-8.6,3.3-15.9,3.62-21.7,.97-7.43-3.39-10.22-10.77-10.29-10.96-.92-2.59-3.75-3.96-6.35-3.06-2.61,.9-3.99,3.75-3.08,6.36,.16,.46,4.07,11.4,15.4,16.68,3.97,1.85,8.29,2.77,12.94,2.77,5.17,0,10.74-1.14,16.67-3.41,10.01-3.84,18.75-9.12,26.46-13.78,7.56-4.57,16.14-9.76,19.07-8.44,.48,.22,2.14,1.39,3.26,7.46,1.78,9.64,5.69,15.34,11.6,16.95,7.1,1.93,14.16-2.98,18.27-6.71-19.45,47.76-88.07,83.35-169.98,84.34,3.07-3.34,18.01-18.01,40.15-14.06,2.71,.49,5.32-1.33,5.8-4.04,.48-2.72-1.32-5.32-4.04-5.8-30.54-5.46-49.47,17.3-50.26,18.27-1.34,1.64-1.45,3.87-.46,5.61-91.05-1.68-165.24-46.12-172.96-102.27,.33,.47,.68,.93,1.04,1.37,4.17,5.06,10.1,7.81,17.17,7.94,.25,0,.49,0,.73,0,7.97,0,13.55-2.57,16.58-7.65,6.35-10.66-2.8-27.44-3.86-29.32-1.46-2.58-4.87-3.36-7.33-1.55-2.06,1.52-2.51,4.41-1.27,6.65,2.46,4.46,6.51,14.68,3.87,19.1-1.43,2.39-5.42,2.81-8.52,2.76-4.17-.08-7.32-1.48-9.63-4.29-3.63-4.4-4.89-11.67-5.1-18.34-.27-8.29,1.84-16.46,5.93-23.68,8.93-15.74,23.47-30.16,42.81-42.17,.4,1.89,1.88,3.46,3.89,3.87,.34,.07,.67,.1,1,.1,2.33,0,4.41-1.63,4.89-4,.04-.22,4.64-21.6,25.98-27.69,23.06-6.59,35.34,7.6,38.56,12.1,1.69,2.36,5.05,2.82,7.32,.9,2-1.7,2.25-4.74,.71-6.86-1.65-2.28-3.62-4.51-5.88-6.57,16.01-2.89,32.58-4.38,49.42-4.38,98.69,0,178.98,50.25,178.98,112.01,0,6.02-.78,11.94-2.25,17.71Z"/><path d="M199.17,238.25c6.63-7.47,8.68-17.73,5.63-28.15-3.49-11.93-18.6-20.19-33.21-28.17-11.04-6.03-24.77-13.54-23.69-18.94,.54-2.71-1.21-5.34-3.92-5.88-2.71-.54-5.34,1.21-5.88,3.92-2.52,12.62,12.64,20.9,28.7,29.68,12.22,6.68,26.08,14.25,28.41,22.21,2.09,7.15,.85,13.8-3.51,18.71-6.27,7.07-17.89,9.79-31.87,7.46-16.68-2.78-21.26-8.61-22.48-12.06-.61-1.72-2.06-2.99-3.85-3.31h0c-3.74-.67-6.85,2.92-5.62,6.51,.51,1.5,1.29,3.12,2.44,4.77,4.85,6.98,14.23,11.68,27.86,13.95,3.79,.63,7.46,.94,10.98,.94,12.66,0,23.28-4.04,30.02-11.63Z"/><path d="M189.14,166.82c-3.62-2.23-8.02-4.93-9.65-6.45,.14-1.91-.83-3.81-2.62-4.77-2.43-1.31-5.46-.4-6.77,2.03-1.35,2.51-1.83,6.44,3.57,10.9,2.43,2.01,5.88,4.13,10.24,6.81,10.59,6.5,26.59,16.33,38.61,32.18,4.33,5.71,5.74,11.08,4.3,16.41-3.26,12.09-20.77,21.75-27.24,24.45-2.55,1.06-3.76,3.98-2.7,6.53,.8,1.92,2.66,3.08,4.62,3.08,.64,0,1.29-.12,1.91-.38,1.13-.47,27.83-11.74,33.05-31.05,2.28-8.41,.26-16.85-5.99-25.09-13.16-17.34-30.12-27.76-41.35-34.66Z"/><path d="M98.5,196.48c44.88,4.49,55.63,17.9,58.2,23.91,.77,1.8,2.47,3.04,4.43,3.13h0c3.64,.16,6.26-3.5,4.88-6.87-1.23-3-3.46-6.64-7.49-10.37-11.08-10.27-30.87-16.91-58.83-19.73-2.59-.26-5.1,1.42-5.6,3.98-.58,2.94,1.5,5.66,4.41,5.95Z"/><path d="M309.37,227.1c-34.74-18.71-64.88,.9-66.14,1.74-2.3,1.53-2.92,4.64-1.39,6.93,1.53,2.3,4.63,2.92,6.93,1.39,.26-.17,26.34-17.15,55.86-1.26,5.91,3.18,11.97,4.77,18.08,4.77,9.64,0,19.41-3.94,28.9-11.74,10.23-8.41,17.96-19.83,22.36-33.03l3.77-11.31c.87-2.62-.54-5.45-3.16-6.32-2.62-.87-5.45,.54-6.32,3.16l-3.77,11.31c-3.8,11.41-10.45,21.26-19.23,28.47-12.3,10.11-24.37,12.1-35.89,5.9Z"/><path d="M257.73,192.51c-2.76,.15-4.87,2.5-4.73,5.26,.15,2.76,2.46,4.86,5.26,4.73,9.99-.53,38.82-.09,52.07,8.24,4.91,3.08,9.75,4.64,14.46,4.64,1.68,0,3.35-.2,4.99-.6,9.4-2.27,14.3-10.38,14.51-10.72,1.41-2.37,.63-5.44-1.75-6.85s-5.44-.63-6.85,1.75c-.03,.05-3,4.84-8.26,6.11-3.53,.85-7.49-.09-11.78-2.79-18.63-11.71-56.33-9.84-57.93-9.76Z"/><path d="M219.1,179.07c.88,.63,1.89,.93,2.9,.93,1.56,0,3.1-.73,4.08-2.1,7.5-10.53,9.45-20.69,5.79-30.2-9.12-23.7-51.01-33.19-52.79-33.59-2.69-.6-5.37,1.11-5.96,3.81-.6,2.7,1.11,5.36,3.8,5.96,10.66,2.35,39.62,11.86,45.61,27.41,2.41,6.27,.91,13.07-4.6,20.81-1.6,2.25-1.08,5.37,1.17,6.97Z"/><path d="M257.45,170.3c2.53-26.34-19.66-53.36-20.61-54.49-1.76-2.12-4.91-2.41-7.04-.65s-2.42,4.91-.65,7.04c.21,.25,20.49,25.01,18.34,47.18-.79,8.13-4.44,14.76-11.16,20.26-2.14,1.75-2.45,4.9-.7,7.04,.99,1.21,2.42,1.83,3.87,1.83,1.11,0,2.23-.37,3.16-1.13,8.77-7.18,13.75-16.29,14.78-27.07Z"/><path d="M131.66,103.97c-7.61,5.22-12.15,12.29-13.12,20.44-.54,4.51,.87,8.59,4.08,11.8,7.25,7.26,23.75,8.94,37.45,8.94,10.31,0,19.03-.95,21.02-1.18,2.74-.32,4.7-2.81,4.38-5.55-.32-2.74-2.81-4.7-5.55-4.38-.1,.01-10.66,1.23-22.37,1.07-20.05-.27-26.16-4.26-27.86-5.96-1.04-1.05-1.4-2.07-1.22-3.55,.63-5.28,3.61-9.78,8.85-13.38,10.53-7.23,28.19-9.38,43.95-5.37,2.68,.69,5.4-.93,6.08-3.61,.68-2.68-.93-5.4-3.61-6.08-18.67-4.76-39.11-2.08-52.08,6.81Z"/><path d="M121.07,163.11c.63,.26,1.29,.39,1.93,.39,1.96,0,3.81-1.15,4.61-3.07,1.07-2.55-.13-5.48-2.68-6.54-5.26-2.2-19.61-10.43-22.79-21.9-1.76-6.35,.05-13.26,5.39-20.52,21.29-28.99,57.05-22.82,58.55-22.55,2.71,.51,5.33-1.28,5.84-3.99,.51-2.71-1.28-5.33-3.99-5.84-1.76-.33-43.38-7.69-68.45,26.45-7.24,9.86-9.59,19.66-6.97,29.11,5.12,18.45,27.61,28.06,28.56,28.46Z"/><path d="M346.77,117.84c1.59-.4,13.2-3.65,16.33-12.73,1.24-3.6,1.52-9.41-4.16-16.68-14.59-18.67-36.86-24.07-37.8-24.29-2.68-.63-5.37,1.04-6,3.72s1.03,5.38,3.71,6.02c.2,.05,19.84,4.88,32.21,20.71,1.61,2.06,3.36,4.99,2.59,7.26-1.1,3.23-6.79,5.65-9.36,6.31-.03,0-.07,.02-.1,.03-21.74,5.93-34.61-3.96-48.24-14.43-8.35-6.42-16.99-13.05-27.46-15.15-12.18-2.43-26.67,3.13-39.45,8.04-10.52,4.04-21.39,8.22-26.37,5.93-.84-.38-2.05-1.19-2.96-3.74-1.27-3.58-1.1-6.81,.53-9.87,4.61-8.68,19.6-14.21,25-15.61,2.67-.69,4.29-3.41,3.6-6.09s-3.41-4.29-6.09-3.6c-.96,.25-23.7,6.23-31.34,20.58-2.99,5.61-3.37,11.65-1.13,17.93,1.61,4.52,4.37,7.71,8.2,9.48,8.8,4.05,20.54-.46,34.13-5.68,11.51-4.42,24.56-9.44,33.9-7.57,8.19,1.64,15.54,7.29,23.33,13.27,11.32,8.69,23.82,18.31,41.75,18.3,4.66,0,9.7-.66,15.17-2.14Z"/><path d="M216.79,76.69c1.49,2.33,4.58,3.01,6.9,1.53,.27-.17,27.19-17.04,53.54-7.04,13.9,5.27,23.8,12.31,31.76,17.97,7.66,5.45,13.51,9.6,19.54,9.6,1.05,0,2.11-.13,3.19-.4,2.68-.67,4.31-3.38,3.64-6.06-.67-2.68-3.39-4.31-6.06-3.64-2.76,.68-8.21-3.18-14.51-7.66-7.98-5.67-18.9-13.44-34-19.17-30.99-11.76-61.19,7.15-62.46,7.96-2.33,1.49-3.01,4.58-1.53,6.91Z"/><path d="M142.52,75.78c.49,.15,.99,.23,1.48,.23,2.13,0,4.11-1.38,4.77-3.52,.32-1.04,3.46-10.05,14.66-7.6,2.7,.59,5.36-1.12,5.95-3.82,.59-2.7-1.12-5.36-3.82-5.95-16.2-3.54-24.32,7.87-26.34,14.4-.82,2.64,.66,5.44,3.29,6.26Z"/><path d="M254.25,125.03c-2.46,1.24-3.46,4.24-2.23,6.7,.88,1.75,2.64,2.76,4.48,2.76,.75,0,1.52-.17,2.23-.53,8.64-4.32,23.41-16.82,17.46-33.18-.94-2.6-3.81-3.93-6.41-2.99-2.6,.94-3.93,3.81-2.99,6.41,4.39,12.07-11.84,20.46-12.55,20.82Z"/><path d="M294.79,115.06c-2.72-.43-5.29,1.42-5.73,4.15-3.42,21.39-25.9,27.7-26.85,27.96-2.66,.71-4.25,3.44-3.54,6.11,.59,2.24,2.62,3.72,4.83,3.72,.42,0,.85-.05,1.28-.17,1.21-.32,29.7-8.15,34.16-36.04,.44-2.73-1.42-5.29-4.15-5.73Z"/><path d="M382.8,133.56c-9.46-4.91-23.6,3.76-38.56,12.94-6.16,3.78-11.98,7.35-16.93,9.6-6.18,2.82-7.84,2.05-7.85,2.04-.53-.3-1.06-.73-1.34-1.89-1.3-5.25,3.94-16.64,8.08-23.05,1.5-2.32,.83-5.41-1.48-6.91-2.32-1.5-5.41-.84-6.91,1.48-1.26,1.95-12.22,19.35-9.39,30.86,.89,3.6,3.01,6.44,6.13,8.21,1.69,.96,3.57,1.39,5.61,1.39,7.78,0,17.93-6.23,29.32-13.21,9.67-5.93,24.29-14.89,28.73-12.59,2.45,1.27,5.47,.32,6.74-2.14,1.27-2.45,.32-5.47-2.13-6.74Z"/><path d="M368.31,113.3c-2.6,.93-3.95,3.8-3.01,6.4,.93,2.6,3.8,3.95,6.4,3.01,3.29-1.18,13.95-3.91,19.63-1.02,1.73,.88,2.8,2.22,3.38,4.21,4.13,14.22,1.39,32.66,1.36,32.85-.42,2.73,1.45,5.28,4.18,5.7,.26,.04,.51,.06,.77,.06,2.43,0,4.56-1.77,4.94-4.24,.13-.84,3.11-20.78-1.64-37.15-1.34-4.63-4.26-8.2-8.44-10.33-10.51-5.36-25.84-.1-27.56,.52Z"/><path d="M200.29,167.85c.41,.1,.82,.15,1.22,.15,2.24,0,4.28-1.52,4.85-3.79,2.73-10.92-5.03-18.27-9.52-20.64-2.43-1.27-5.41-.35-6.71,2.07-1.3,2.41-.39,5.44,2.01,6.76,.62,.34,5.99,3.5,4.52,9.38-.67,2.68,.96,5.39,3.64,6.06Z"/><path d="M101.01,205.1c-2.7-.56-5.35,1.18-5.91,3.89-.56,2.7,1.18,5.35,3.89,5.91,1.67,.35,6.91,2.08,9.02,5.42,.98,1.55,1.18,3.29,.64,5.49-.66,2.68,.98,5.39,3.66,6.05,.4,.1,.8,.15,1.2,.15,2.25,0,4.29-1.53,4.85-3.81,1.18-4.81,.53-9.38-1.89-13.21-4.71-7.47-14.37-9.65-15.45-9.88Z"/><path d="M278.73,186.78c.95,.82,2.11,1.22,3.27,1.22,1.4,0,2.79-.58,3.78-1.73,1.81-2.09,1.58-5.24-.5-7.05-5.8-5.03-6.78-12.59-6.8-12.77-.3-2.73-2.76-4.71-5.49-4.42-2.75,.29-4.74,2.75-4.45,5.5,.05,.47,1.31,11.55,10.2,19.26Z"/><path d="M243.53,99.11c-2.71-.57-5.35,1.16-5.92,3.86-.57,2.7,1.16,5.35,3.86,5.92,3.38,.71,7.35,2.26,8.26,3.21,.94,1.54,2.58,2.4,4.28,2.4,.84,0,1.69-.21,2.48-.66,2.4-1.37,3.23-4.42,1.86-6.82-2.81-4.92-11.29-7.17-14.81-7.91Z"/><path d="M347.45,122.11c-8.8,1.89-15.45,12.06-16.18,13.22-1.47,2.33-.78,5.41,1.55,6.89,.83,.53,1.76,.78,2.67,.78,1.65,0,3.27-.82,4.23-2.32,1.61-2.53,6.13-8,9.83-8.79,2.7-.58,4.42-3.24,3.84-5.94-.58-2.7-3.23-4.42-5.94-3.84Z"/></svg>